<?xml version="1.0" standalone="no"?>
<!DOCTYPE svg PUBLIC "-//W3C//DTD SVG 20010904//EN"
 "http://www.w3.org/TR/2001/REC-SVG-20010904/DTD/svg10.dtd">
<svg version="1.0" xmlns="http://www.w3.org/2000/svg"
 width="560.000000pt" height="560.000000pt" viewBox="0 0 560.000000 560.000000"
 preserveAspectRatio="xMidYMid meet">
<metadata>
Created by potrace 1.14, written by Peter Selinger 2001-2017
</metadata>
<g transform="translate(0.000000,560.000000) scale(0.100000,-0.100000)"
fill="#000000" stroke="none">
<path d="M3094 5234 c-83 -39 -195 -63 -419 -90 -115 -13 -235 -29 -265 -35
-193 -36 -369 -131 -518 -279 -202 -200 -281 -483 -270 -962 l4 -187 -57 -26
c-64 -28 -69 -36 -69 -104 0 -58 17 -76 82 -85 79 -12 90 -27 98 -142 4 -54
16 -119 25 -144 37 -94 126 -179 228 -217 64 -24 313 -30 400 -9 144 34 263
122 315 234 21 46 27 76 30 154 4 96 4 97 34 109 37 15 124 15 171 0 l37 -13
0 -89 c0 -189 89 -325 253 -386 64 -24 313 -30 400 -9 144 34 263 122 315 234
21 46 27 76 30 155 5 111 5 110 92 122 74 10 90 25 90 89 0 28 -4 57 -8 64 -5
7 -41 28 -81 47 l-73 35 6 48 c3 26 9 125 12 220 14 400 -56 673 -213 834 -26
26 -82 76 -126 110 -44 35 -94 75 -111 90 l-31 26 18 49 c9 26 17 60 17 76 0
33 -22 35 -95 8 -100 -37 -96 -38 -89 7 4 26 2 42 -6 47 -6 4 -45 -9 -85 -29
-40 -20 -75 -36 -78 -36 -3 0 4 17 16 38 22 42 18 72 -10 71 -10 0 -41 -12
-69 -25z m280 -598 c17 -19 49 -54 71 -78 22 -24 75 -71 118 -105 137 -108
213 -228 248 -392 9 -46 49 -335 46 -337 -1 -1 -33 4 -72 12 -38 7 -85 13
-104 14 -18 0 -57 13 -86 30 -141 81 -321 75 -454 -14 -28 -19 -65 -37 -83
-41 -18 -4 -73 -23 -123 -42 -79 -31 -98 -35 -155 -30 -40 3 -84 14 -115 30
-28 14 -70 31 -95 38 -25 8 -67 28 -93 46 -131 88 -312 93 -454 13 -34 -19
-67 -30 -92 -30 -21 0 -76 -7 -121 -16 -45 -8 -84 -13 -87 -10 -10 10 29 213
63 324 55 180 120 297 216 388 23 23 76 78 115 122 l72 80 268 -5 c268 -6 747
10 813 26 59 15 71 12 104 -23z m-1068 -1006 c110 -10 199 -38 232 -73 54 -57
76 -202 47 -302 -22 -78 -104 -162 -188 -193 -123 -46 -323 -54 -446 -17 -67
21 -153 101 -171 161 -34 113 -20 273 29 334 63 79 248 113 497 90z m1240 0
c110 -10 199 -38 232 -73 54 -57 76 -202 47 -302 -22 -78 -104 -162 -188 -193
-123 -46 -323 -54 -446 -17 -67 21 -153 101 -171 161 -34 113 -20 273 29 334
63 79 248 113 497 90z"/>
<path d="M2219 3463 c-78 -48 -77 -160 1 -207 78 -45 180 14 180 104 0 91
-105 150 -181 103z"/>
<path d="M3259 3463 c-78 -48 -77 -160 1 -207 56 -32 130 -12 164 44 61 104
-63 226 -165 163z"/>
<path d="M2532 2628 c-32 -32 3 -112 67 -155 104 -70 298 -70 402 0 66 44 100
127 64 157 -23 19 -47 8 -71 -35 -33 -60 -97 -90 -193 -90 -98 0 -164 30 -196
90 -23 42 -51 55 -73 33z"/>
<path d="M2265 1933 c-84 -10 -208 -38 -270 -61 -184 -66 -292 -175 -311 -316
l-7 -46 -90 -45 c-49 -25 -124 -69 -166 -98 -151 -104 -355 -324 -428 -463
l-27 -51 39 -48 c110 -134 361 -342 555 -460 135 -82 445 -225 490 -225 7 0
10 149 10 455 0 250 2 455 5 455 2 0 34 -14 70 -32 l65 -32 0 -447 0 -447 138
-26 c335 -63 610 -62 943 4 429 86 829 291 1154 594 142 132 199 199 190 226
-18 56 -138 213 -249 325 -130 131 -220 197 -363 269 l-90 45 -7 47 c-18 138
-124 247 -301 313 -59 22 -197 53 -287 64 l-46 6 -4 -237 c-5 -272 -15 -315
-94 -422 -191 -260 -577 -260 -768 0 -79 107 -89 150 -94 423 -3 171 -7 237
-15 236 -7 -1 -25 -4 -42 -6z m1275 -1315 c0 -409 0 -412 -22 -435 -27 -29
-65 -29 -95 -1 l-23 21 0 382 0 381 63 31 c34 18 65 32 70 32 4 1 7 -184 7
-411z"/>
</g>
</svg>
